<?xml version="1.0" encoding="UTF-8" standalone="no"?>
<!-- Created with Inkscape (http://www.inkscape.org/) -->

<svg
   width="93.181694mm"
   height="132.65448mm"
   viewBox="0 0 93.181694 132.65448"
   version="1.1"
   id="svg1"
   xml:space="preserve"
   xmlns="http://www.w3.org/2000/svg"
   xmlns:svg="http://www.w3.org/2000/svg"><defs
     id="defs1" /><g
     id="layer1"
     transform="translate(-216.43412,-121.33995)"><path
       style="fill:#ffcc00"
       d="m 262.91467,253.70873 c -0.25431,-0.19014 -0.46239,-0.66133 -0.46239,-1.04708 0,-0.50773 0.23707,-0.84591 0.85872,-1.22493 0.4723,-0.28797 1.12804,-0.52402 1.45721,-0.52456 0.32917,-5.5e-4 1.28036,-0.17525 2.11377,-0.38824 0.8334,-0.21298 1.95353,-0.45474 2.48917,-0.53723 0.53564,-0.0825 1.7015,-0.63587 2.5908,-1.22972 0.8893,-0.59385 1.81839,-1.38702 2.06465,-1.76259 0.36825,-0.5616 0.46404,-1.51755 0.53945,-5.38336 0.082,-4.20318 0.0449,-4.71844 -0.35052,-4.87018 -0.24322,-0.0933 -1.05732,0.0181 -1.80913,0.24763 -0.75181,0.22953 -2.13977,0.55595 -3.08436,0.72538 -0.94459,0.16943 -4.03598,0.36616 -6.86976,0.43717 -3.23677,0.0811 -6.08553,0.011 -7.66242,-0.18864 -1.38056,-0.17477 -3.31267,-0.37815 -4.2936,-0.45195 l -1.78349,-0.13418 v 4.26584 c 0,2.98511 0.10717,4.52235 0.35697,5.12021 0.19634,0.4699 0.79497,1.23892 1.3303,1.70895 0.53533,0.47003 1.08809,0.85459 1.22836,0.85459 0.14026,0 0.25503,0.27989 0.25503,0.62197 0,0.34209 -0.30303,0.94894 -0.67339,1.34857 -0.48744,0.52596 -0.834,0.68353 -1.25505,0.57063 -0.31992,-0.0858 -0.67786,-0.15758 -0.79543,-0.15957 -0.11757,-0.002 -0.14111,-0.12114 -0.0523,-0.2648 0.0938,-0.15173 -0.0166,-0.19287 -0.26342,-0.0982 -0.25172,0.0966 -0.62607,-0.053 -0.91865,-0.36701 -0.34363,-0.36884 -0.74438,-0.50086 -1.31773,-0.43411 -0.45316,0.0528 -1.56191,0.3864 -2.46389,0.7414 -0.90199,0.35501 -2.56471,0.79662 -3.69494,0.98135 -1.67992,0.27458 -2.45147,0.27206 -4.22754,-0.0138 -1.19492,-0.19233 -2.61559,-0.40663 -3.15705,-0.47622 -0.65631,-0.0844 -1.38674,-0.48063 -2.1913,-1.18883 -1.1286,-0.99343 -1.17914,-1.09291 -0.77956,-1.53444 0.37869,-0.41845 0.8983,-0.46788 4.5693,-0.43462 3.2563,0.0295 4.60921,-0.0712 6.3268,-0.47102 1.45284,-0.33817 2.47068,-0.74722 3.03815,-1.22097 0.85336,-0.71242 0.85336,-0.71242 0.99881,-5.29953 0.11988,-3.78055 0.0779,-4.66841 -0.23872,-5.0495 -0.21129,-0.25431 -0.52891,-0.46239 -0.70582,-0.46239 -0.17691,0 -1.19885,-0.29365 -2.27098,-0.65256 -1.07214,-0.35892 -2.36548,-0.8054 -2.87411,-0.9922 -0.50863,-0.18679 -1.85444,-0.84383 -2.99069,-1.46007 -1.13625,-0.61625 -2.92011,-1.76334 -3.96413,-2.54909 -1.04402,-0.78575 -2.57996,-2.12388 -3.4132,-2.97362 -0.83325,-0.84974 -2.052,-2.25838 -2.70834,-3.13031 -0.65634,-0.87193 -1.716,-2.59597 -2.35478,-3.83121 -0.63879,-1.23523 -1.40585,-3.04353 -1.70459,-4.01844 -0.29874,-0.97491 -0.68706,-3.0105 -0.86293,-4.52353 -0.2457,-2.11364 -0.24937,-3.51632 -0.0158,-6.05455 0.16716,-1.81698 0.54868,-4.59683 0.84783,-6.17744 0.29914,-1.58062 1.03291,-4.36009 1.63058,-6.17661 0.59768,-1.81653 1.60311,-4.3353 2.2343,-5.59728 0.63118,-1.26199 1.14761,-2.41212 1.14761,-2.55585 0,-0.14374 1.12338,-1.92891 2.49641,-3.96705 1.37302,-2.03814 2.71064,-3.9316 2.97249,-4.20769 0.26184,-0.27609 0.95168,-1.12919 1.53297,-1.89579 0.58128,-0.7666 1.2461,-1.58724 1.47737,-1.82366 0.23128,-0.23641 1.9123,-2.23 3.73562,-4.43021 1.82331,-2.2002 3.82052,-4.74461 4.43824,-5.65424 0.61772,-0.90964 1.52455,-2.36407 2.01518,-3.23209 0.49063,-0.86802 1.26261,-2.60399 1.71551,-3.85772 0.68341,-1.89184 0.84224,-2.77381 0.93394,-5.18595 0.0794,-2.08798 0.0119,-3.09245 -0.23955,-3.56699 -0.31827,-0.60058 -0.55334,-0.6759 -2.58931,-0.82961 -1.23159,-0.093 -2.83376,-0.2888 -3.56036,-0.43515 -0.72661,-0.14635 -1.69765,-0.41958 -2.15788,-0.60719 -0.76127,-0.31033 -0.92813,-0.28068 -1.84955,0.32861 -0.55703,0.36834 -1.42893,0.88488 -1.93755,1.14786 -0.50863,0.26299 -1.81653,0.63556 -2.90644,0.82795 -1.08991,0.19239 -2.51671,0.35056 -3.17066,0.35148 -0.65394,9.3e-4 -2.47412,-0.22729 -4.04482,-0.50715 -1.57071,-0.27986 -3.36202,-0.75388 -3.98069,-1.05337 -0.61867,-0.2995 -1.27422,-0.54454 -1.45677,-0.54454 -0.18256,0 -0.83592,-0.29536 -1.45191,-0.65636 -0.616,-0.36099 -1.37641,-0.92929 -1.6898,-1.26289 -0.3134,-0.33359 -0.59406,-0.9597 -0.62369,-1.39135 -0.0296,-0.43166 0.0361,-1.05916 0.14609,-1.39446 0.10998,-0.3353 0.45731,-0.70675 0.77185,-0.82546 0.31454,-0.1187 1.34474,-0.10374 2.28933,0.0332 0.94459,0.13697 2.39523,0.19326 3.22365,0.12508 1.13006,-0.093 1.78989,-0.32649 2.64221,-0.93495 0.6248,-0.44605 1.57963,-1.11188 2.12185,-1.47962 0.58953,-0.39985 1.05037,-0.96066 1.14638,-1.39508 0.0883,-0.39955 0.34657,-1.32094 0.57393,-2.04755 0.22735,-0.72661 0.79649,-1.79671 1.26475,-2.37799 0.46826,-0.58129 1.06261,-1.47234 1.32076,-1.98012 0.25816,-0.50777 0.95664,-1.57226 1.55218,-2.36553 0.59554,-0.79328 1.70515,-2.04242 2.4658,-2.77588 0.76065,-0.73346 1.55821,-1.48218 1.77234,-1.66384 0.21414,-0.18165 0.50477,-0.33027 0.64584,-0.33027 0.14108,0 0.41544,-0.14863 0.60968,-0.33028 0.19425,-0.18165 0.76752,-0.52752 1.27393,-0.7686 0.50641,-0.24107 1.45579,-0.592 2.10974,-0.77984 0.69218,-0.19881 2.56905,-0.33993 4.49176,-0.33772 1.87544,0.002 3.8707,0.15404 4.61694,0.35146 0.7228,0.19122 1.7608,0.62961 2.30669,0.97421 0.54588,0.3446 1.08959,0.62654 1.20824,0.62654 0.11865,0 0.50282,0.20808 0.8537,0.46239 0.35089,0.25432 1.48258,1.3105 2.51488,2.34709 1.1675,1.17235 2.23577,2.57048 2.82637,3.6991 0.52221,0.99792 1.22792,2.70615 1.56825,3.79606 0.54094,1.73242 0.61526,2.48015 0.59088,5.94498 -0.025,3.54842 -0.11347,4.28141 -0.8455,7.00187 -0.4497,1.6712 -1.40527,4.46534 -2.1235,6.2092 -0.71822,1.74386 -2.04922,4.71635 -2.95777,6.60553 -0.90855,1.88918 -2.05085,4.61737 -2.53845,6.06263 -0.48759,1.44526 -1.02678,3.59773 -1.19819,4.78325 -0.23528,1.62727 -0.23852,2.74946 -0.0132,4.57926 0.21833,1.77326 0.52835,2.89082 1.15511,4.16395 0.47118,0.9571 1.19409,1.98964 1.60648,2.29453 0.41238,0.30489 1.31095,0.71287 1.99681,0.90663 0.68586,0.19376 1.96041,0.53244 2.83235,0.75264 0.87193,0.22019 3.01212,0.69623 4.75598,1.05787 2.55036,0.52889 3.58419,0.62465 5.28443,0.48946 1.16257,-0.0924 2.23267,-0.26093 2.37799,-0.37445 0.14532,-0.11351 0.69165,-0.28327 1.21406,-0.37723 0.52241,-0.094 2.00486,-0.70919 3.29434,-1.36716 1.28948,-0.65797 2.40774,-1.28484 2.48504,-1.39304 0.0773,-0.1082 0.51454,-0.42995 0.97165,-0.71501 0.45711,-0.28506 1.50327,-1.10017 2.32481,-1.81135 0.82153,-0.71119 1.66931,-1.63266 1.88394,-2.04772 0.21464,-0.41505 0.56015,-0.75465 0.76782,-0.75465 0.22429,0 0.44999,0.386 0.55594,0.95078 0.0981,0.52292 0.10128,1.56329 0.007,2.31193 -0.0942,0.74864 -0.24204,1.74759 -0.32849,2.21989 -0.14383,0.78572 -0.0998,0.85872 0.51776,0.85872 0.37122,0 0.74278,-0.10975 0.82568,-0.2439 0.0829,-0.13414 0.50607,-0.32193 0.94037,-0.41732 0.4343,-0.0954 0.78963,-0.27344 0.78963,-0.39567 0,-0.12223 0.3567,-0.30058 0.79267,-0.39633 0.43596,-0.0958 0.79266,-0.26447 0.79266,-0.37491 0,-0.11045 0.30285,-0.33881 0.67299,-0.50745 0.37014,-0.16865 0.71412,-0.30664 0.76439,-0.30664 0.0503,0 0.16588,0.19407 0.2569,0.43127 0.091,0.23719 -0.13107,1.51536 -0.49354,2.84038 -0.36247,1.32501 -0.72513,2.84577 -0.80591,3.37947 -0.0935,0.6181 -0.73505,1.76909 -1.76713,3.17065 -0.89114,1.21017 -2.13467,2.75864 -2.76339,3.44104 -0.69166,0.75072 -1.0837,1.39563 -0.99264,1.63292 0.0828,0.2157 0.46793,0.51645 0.85592,0.66832 0.38798,0.15188 1.47827,0.70936 2.42286,1.23885 0.94459,0.52949 2.72809,1.74964 3.96332,2.71146 1.23524,0.96181 2.48368,1.94638 2.77433,2.18794 0.29064,0.24155 1.12294,0.93996 1.84955,1.55202 0.72661,0.61207 1.62284,1.36714 1.99164,1.67794 0.36879,0.31081 1.20109,0.93514 1.84955,1.3874 0.64846,0.45226 1.59516,1.0371 2.10379,1.29964 0.50862,0.26254 1.40037,0.58489 1.98166,0.71633 0.58128,0.13145 1.59193,0.31946 2.24588,0.4178 1.10129,0.16562 1.189,0.23654 1.189,0.96134 0,0.6079 -0.1769,0.86834 -0.79267,1.167 -0.43596,0.21146 -1.14936,0.56003 -1.58533,0.7746 -0.43596,0.21458 -1.42168,0.86686 -2.19048,1.44952 -1.03986,0.78808 -2.03552,2.01864 -3.88808,4.80535 -1.36966,2.06028 -2.93927,4.27149 -3.48803,4.9138 -0.54876,0.6423 -1.59326,1.7858 -2.32111,2.54112 -0.72785,0.75531 -1.84492,1.9138 -2.48237,2.5744 -0.63745,0.66061 -1.82645,1.63993 -2.64221,2.17628 -0.81577,0.53635 -1.54266,1.04246 -1.61532,1.1247 -0.0727,0.0822 -0.48881,0.39552 -0.92478,0.69618 -0.43596,0.30067 -1.92221,1.08821 -3.30277,1.75009 -1.38055,0.66189 -2.92625,1.38508 -3.43487,1.60709 -0.50863,0.22202 -1.16258,0.44633 -1.45322,0.49847 -0.47761,0.0857 -0.54224,0.3614 -0.67183,2.86645 -0.0789,1.52441 -0.073,4.04304 0.0131,5.59697 0.13899,2.50879 0.23651,2.93801 0.87043,3.83121 0.4278,0.60277 1.25949,1.27061 2.0753,1.66644 0.74876,0.3633 1.48035,0.85161 1.62574,1.08513 0.19334,0.31051 0.12916,0.61029 -0.23888,1.11584 -0.28565,0.39237 -0.66752,0.63255 -0.88317,0.55549 -0.20896,-0.0747 -1.39796,-0.12192 -2.64222,-0.105 -1.24425,0.0169 -2.57279,0.0599 -2.95231,0.0954 -0.37951,0.0356 -1.09291,0.2558 -1.58532,0.48945 -0.49242,0.23365 -1.8465,0.68915 -3.00908,1.01221 -1.5419,0.42848 -3.00732,0.60862 -5.41654,0.66584 -2.41234,0.0573 -3.42742,-0.0148 -3.76515,-0.26726 z m 14.20003,-2.26609 c 0.0926,-0.14978 -0.0135,-0.19407 -0.24863,-0.10384 -0.22553,0.0865 -0.41006,0.20408 -0.41006,0.26119 0,0.0571 0.11189,0.10384 0.24863,0.10384 0.13675,0 0.32127,-0.11753 0.41006,-0.26119 z m -26.64046,-0.17918 c -0.0969,-0.0969 -0.25541,-0.0969 -0.35229,0 -0.0969,0.0969 -0.0176,0.17615 0.17615,0.17615 0.19376,0 0.27303,-0.0793 0.17614,-0.17615 z m -2.02569,-0.22018 c 0,-0.0727 -0.0594,-0.13211 -0.13211,-0.13211 -0.0727,0 -0.13211,0.0594 -0.13211,0.13211 0,0.0727 0.0594,0.13211 0.13211,0.13211 0.0727,0 0.13211,-0.0594 0.13211,-0.13211 z m 29.85701,0 c 0,-0.0727 -0.0594,-0.13211 -0.13211,-0.13211 -0.0727,0 -0.13211,0.0594 -0.13211,0.13211 0,0.0727 0.0594,0.13211 0.13211,0.13211 0.0727,0 0.13211,-0.0594 0.13211,-0.13211 z m 18.5467,-28.60711 c 0.82743,-0.97809 2.41348,-3.20514 3.52456,-4.949 1.14996,-1.80488 2.67467,-3.79664 3.53961,-4.62387 0.83569,-0.79927 2.22213,-1.80172 3.08096,-2.22767 0.85884,-0.42594 1.72196,-0.89618 1.91805,-1.04497 0.26277,-0.19938 -0.21407,-0.39328 -1.81318,-0.73729 -1.42643,-0.30686 -4.89763,-1.62939 -10.13272,-3.86057 -4.37966,-1.86659 -8.61696,-3.6623 -9.41623,-3.99046 -0.79927,-0.32815 -1.608,-0.66236 -1.79718,-0.74268 -0.18917,-0.0803 0.002,0.37438 0.42437,1.01043 0.42258,0.63605 0.96379,1.74242 1.20268,2.45858 0.23889,0.71617 0.43435,1.85386 0.43435,2.5282 0,0.67435 -0.1778,1.8248 -0.39511,2.55656 -0.22485,0.75717 -0.83556,1.83097 -1.41728,2.492 -0.83278,0.94631 -0.99983,1.31371 -0.90151,1.98278 0.0762,0.51851 -0.0851,1.22454 -0.43748,1.91531 -0.30699,0.60173 -1.00168,1.38421 -1.54377,1.73883 -0.54208,0.35462 -1.34231,0.72789 -1.77827,0.82949 -0.43597,0.1016 -0.88923,0.23932 -1.00726,0.30605 -0.11803,0.0667 0.17627,0.4097 0.65399,0.76216 0.47773,0.35246 2.0011,1.28468 3.38526,2.07162 1.38416,0.78693 3.17061,1.68782 3.96988,2.00196 0.79927,0.31415 2.16661,0.72823 3.03854,0.92017 0.87193,0.19195 2.12038,0.35614 2.77433,0.36486 1.14889,0.0153 1.23974,-0.0441 2.69341,-1.76249 z m -63.74181,-85.78476 c 0.17361,-0.20919 0.27735,-0.71451 0.23052,-1.12294 -0.0686,-0.59788 -0.23403,-0.75958 -0.84915,-0.8298 -0.43394,-0.0495 -0.86024,0.0646 -0.98678,0.26422 -0.12253,0.19329 -0.22461,0.61305 -0.22684,0.93281 -0.002,0.31975 0.20403,0.70256 0.45835,0.85068 0.25431,0.14813 0.59645,0.27293 0.76031,0.27735 0.16386,0.004 0.43997,-0.16312 0.61359,-0.37232 z m 12.43695,-1.60404 c 0.42444,-0.21948 0.89414,-0.62782 1.04376,-0.9074 0.14963,-0.27959 0.27206,-0.88067 0.27206,-1.33574 0,-0.45508 -0.12243,-1.05616 -0.27206,-1.33575 -0.14962,-0.27958 -0.63967,-0.69844 -1.08898,-0.93079 -0.53284,-0.27554 -1.12182,-0.36525 -1.69368,-0.25797 -0.51293,0.0962 -1.15746,0.49809 -1.55323,0.96843 -0.46256,0.54973 -0.67648,1.11719 -0.67648,1.79451 0,0.69084 0.17988,1.15421 0.5945,1.53143 0.32697,0.29748 0.77285,0.60606 0.99083,0.68575 0.21798,0.0797 0.66976,0.15427 1.00395,0.16574 0.33419,0.0115 0.95489,-0.15872 1.37933,-0.37821 z m -0.26951,-0.52571 c 0,-0.0727 0.0594,-0.13211 0.13211,-0.13211 0.0727,0 0.13211,0.0594 0.13211,0.13211 0,0.0727 -0.0594,0.13212 -0.13211,0.13212 -0.0727,0 -0.13211,-0.0594 -0.13211,-0.13212 z m -1.78658,-2.2886 c -0.17995,-0.17995 -0.32719,-0.41813 -0.32719,-0.52927 0,-0.11114 0.22919,-0.32474 0.5093,-0.47465 0.28012,-0.14991 0.70255,-0.19841 0.93875,-0.10778 0.25247,0.0969 0.39646,0.39592 0.34941,0.72567 -0.0464,0.3254 -0.30317,0.59285 -0.61155,0.63704 -0.29234,0.0419 -0.67876,-0.071 -0.85872,-0.25101 z"
       id="path147" /></g></svg>
