<?xml version="1.0" encoding="UTF-8" standalone="no"?>
<!-- Created with Inkscape (http://www.inkscape.org/) -->

<svg
   width="43.091297mm"
   height="49.796249mm"
   viewBox="0 0 43.091297 49.796249"
   version="1.1"
   id="svg1"
   xml:space="preserve"
   xmlns:inkscape="http://www.inkscape.org/namespaces/inkscape"
   xmlns:sodipodi="http://sodipodi.sourceforge.net/DTD/sodipodi-0.dtd"
   xmlns="http://www.w3.org/2000/svg"
   xmlns:svg="http://www.w3.org/2000/svg"><sodipodi:namedview
     id="namedview1"
     pagecolor="#ffffff"
     bordercolor="#000000"
     borderopacity="0.25"
     inkscape:showpageshadow="2"
     inkscape:pageopacity="0.0"
     inkscape:pagecheckerboard="0"
     inkscape:deskcolor="#d1d1d1"
     inkscape:document-units="mm" /><defs
     id="defs1" /><g
     inkscape:label="Capa 1"
     inkscape:groupmode="layer"
     id="layer1"
     transform="translate(-367.61884,-310.12954)"><path
       style="fill:#ffcc00;stroke:none"
       d="m 408.85959,338.24803 c -0.56409,-6.42056 -8.46942,-7.58068 -11.72768,-12.16074 -2.2376,-3.14536 1.13679,-6.80806 4.58986,-7.00544 3.33871,-0.19085 5.40978,1.71047 8.98837,0.39634 -0.62575,-1.98083 -2.67655,-0.79994 -4.22982,-1.20494 -1.35498,-0.35329 -2.32297,-1.45658 -3.43673,-2.23179 l -0.79309,1.85055 c -0.22822,-2.07596 0.30549,-4.02106 -1.16149,-5.80459 -2.95297,-3.59015 -9.57589,-1.80762 -11.65139,1.83913 -1.79211,3.14882 -1.24851,7.08844 -0.0563,10.31019 2.92587,7.90668 10.85352,13.98748 19.47827,14.01129 m -12.10138,-25.74305 c 1.59324,-0.64636 2.46716,2.08859 0.95996,2.55511 -1.46877,0.45463 -2.40954,-1.96703 -0.95996,-2.55511 m 0.9981,0.0997 c -2.64581,0.87827 1.39834,3.3827 0,0 m -27.22948,15.06874 c -1.11129,4.72246 3.42625,10.76528 8.19528,9.78146 l -0.79309,-2.37927 c -1.31932,-0.19775 -5.61485,-2.99165 -2.37418,-3.47427 4.13792,-0.61623 8.56567,0.65379 12.68437,0.83063 v 0.26436 c -2.14365,0 -5.925,-0.22483 -7.55762,1.49337 -1.96654,2.06962 3.61562,5.14586 5.17835,5.3801 l -3.96546,3.17236 c 1.7043,6.02171 11.88459,4.75384 16.12619,3.17237 v 0.26436 c -4.20489,1.95393 -8.30583,3.22072 -12.95383,1.91766 -1.38649,-0.3887 -6.59441,-2.00517 -6.59441,-3.79289 0,-1.46714 2.62117,-2.75703 3.68641,-3.41205 -3.29868,-3.99763 -10.09803,0.49315 -14.54001,1.05746 6.38565,9.06517 19.6327,11.89905 29.87312,9.35147 5.56328,-1.38403 11.50012,-5.1103 11.63201,-11.46638 -6.30184,-0.13008 -11.07062,-4.20945 -16.65493,-6.48956 -6.77052,-2.76445 -14.81812,-4.02307 -21.9422,-5.67118 m 22.20657,7.40219 v 0.26436 l -7.40219,2.64364 c 1.03859,-3.49631 4.37748,-3.75799 7.40219,-2.908 m -22.99966,15.3331 c 1.79317,3.84523 7.46069,6.02736 10.31019,1.85055 l -6.08037,-2.53002 -4.22982,0.67947 m 6.6091,5.55165 c 2.11806,3.85865 10.21688,3.96545 14.01128,3.96545 l 0.26437,-5.55164 c -1.97214,-0.58293 -6.4675,-1.34497 -8.45965,-0.82144 -2.01367,0.52918 -3.80118,1.83165 -5.816,2.40763 m 15.59746,-1.85055 v 5.55164 c 3.38208,-0.43675 6.60793,-1.67388 9.5171,-3.43673 -2.71078,-2.63263 -6.03832,-2.76114 -9.5171,-2.11491 z"
       id="path213" /></g></svg>
